<?xml version="1.0" encoding="UTF-8"?><svg xmlns="http://www.w3.org/2000/svg" xmlns:xlink="http://www.w3.org/1999/xlink" height="1029.72" viewBox="0 0 1626 1029.72" width="1626"><defs><linearGradient gradientUnits="userSpaceOnUse" id="b" x1="48.42" x2="444.27" y1="104.73" y2="696.23"><stop offset="0" stop-color="#7de1f6"/><stop offset=".07" stop-color="#74d8f4"/><stop offset=".71" stop-color="#218be2"/><stop offset="1" stop-color="#006ddb"/></linearGradient><linearGradient gradientUnits="userSpaceOnUse" id="a" x1="153.2" x2="345.21" y1="404.75" y2="404.75"><stop offset="0" stop-color="#fff"/><stop offset=".37" stop-color="#f2f2ff"/><stop offset="1" stop-color="#d2d2ff"/></linearGradient><linearGradient id="i" x1="106.74" x2="391.67" xlink:href="#a" y1="404.75" y2="404.75"/><linearGradient id="j" x1="1176.02" x2="1398.97" xlink:href="#b" y1="-50.2" y2="293.33"/><linearGradient id="k" x1="1229.3" x2="1352.33" xlink:href="#a" y1="126.69" y2="126.69"/><linearGradient id="l" x1="1199.54" x2="1382.1" xlink:href="#a" y1="126.69" y2="126.69"/><linearGradient gradientUnits="userSpaceOnUse" id="c" x1="303.09" x2="282.61" y1="332.08" y2="1019.14"><stop offset="0" stop-color="#ffd571"/><stop offset=".25" stop-color="#ffbd60"/><stop offset=".78" stop-color="#ff8035"/><stop offset="1" stop-color="#ff6421"/></linearGradient><linearGradient id="m" x1="1332.55" x2="1318.9" xlink:href="#c" y1="327.53" y2="1037.34"/><linearGradient gradientUnits="userSpaceOnUse" id="d" x1="825.49" x2="858.19" y1="982.96" y2="982.96"><stop offset="0" stop-color="#f5f5f5"/><stop offset=".41" stop-color="#ddd"/><stop offset="1" stop-color="#b3b3b3"/></linearGradient><linearGradient id="n" x1="917.53" x2="950.23" xlink:href="#d" y1="982.96" y2="982.96"/><linearGradient gradientUnits="userSpaceOnUse" id="e" x1="825.49" x2="923.13" y1="861.54" y2="861.54"><stop offset="0" stop-color="#b7b4b1"/><stop offset=".55" stop-color="#959390"/><stop offset="1" stop-color="#7d7b79"/></linearGradient><linearGradient id="o" x1="895.08" x2="932.64" xlink:href="#e" y1="861.54" y2="861.54"/><linearGradient gradientUnits="userSpaceOnUse" id="f" x1="917.26" x2="934.65" y1="568.88" y2="568.88"><stop offset="0" stop-color="#ffecdc"/><stop offset=".24" stop-color="#f6dac4"/><stop offset=".74" stop-color="#e0ad87"/><stop offset="1" stop-color="#d39364"/></linearGradient><linearGradient id="p" x1="767.26" x2="789.14" xlink:href="#f" y1="611.82" y2="611.82"/><linearGradient gradientUnits="userSpaceOnUse" id="g" x1="840.29" x2="869.09" y1="694.98" y2="694.98"><stop offset="0" stop-color="#808080"/><stop offset=".64" stop-color="#52524d"/><stop offset="1" stop-color="#3c3c35"/></linearGradient><linearGradient id="q" x1="839.58" x2="893.19" xlink:href="#g" y1="633.11" y2="633.11"/><linearGradient id="r" x1="782.21" x2="929.29" xlink:href="#a" y1="661.3" y2="661.3"/><linearGradient id="s" x1="864.65" x2="877.93" xlink:href="#f" y1="646.68" y2="646.68"/><linearGradient id="t" x1="854.19" x2="877.07" xlink:href="#f" y1="629.1" y2="629.1"/><linearGradient id="u" x1="722.22" x2="872.37" xlink:href="#c" y1="-17.69" y2="749"/><linearGradient gradientUnits="userSpaceOnUse" id="h" x1="707.66" x2="82.03" y1="947.83" y2="929.63"><stop offset="0" stop-color="#30944c"/><stop offset=".41" stop-color="#8abb62"/><stop offset=".82" stop-color="#dedf77"/><stop offset="1" stop-color="#ffed7f"/></linearGradient><linearGradient id="v" x1="782.97" x2="371.19" xlink:href="#h" y1="964.09" y2="957.26"/><linearGradient id="w" x1="1307.95" x2="916.35" xlink:href="#h" y1="961.34" y2="954.85"/></defs><g><ellipse cx="813" cy="975.86" opacity=".15" rx="813" ry="53.85"/><path d="M290.43,551.76A152,152,0,0,0,324,537.85l28.68,28.68a10.18,10.18,0,0,0,14.36,0L411,522.58a10.17,10.17,0,0,0,0-14.35L382.3,479.54A151.65,151.65,0,0,0,396.22,446h40.55a10.18,10.18,0,0,0,10.15-10.15V373.68a10.19,10.19,0,0,0-10.15-10.16H396.22A151.57,151.57,0,0,0,382.3,330L411,301.27a10.18,10.18,0,0,0,0-14.36L367,243a10.18,10.18,0,0,0-14.36,0L324,271.66a151.57,151.57,0,0,0-33.57-13.92V217.18A10.18,10.18,0,0,0,280.28,207H218.13A10.18,10.18,0,0,0,208,217.18v40.56a151.62,151.62,0,0,0-33.57,13.91L145.73,243a10.18,10.18,0,0,0-14.36,0L87.43,286.91a10.18,10.18,0,0,0,0,14.36L116.11,330a152,152,0,0,0-13.93,33.58H61.64a10.18,10.18,0,0,0-10.15,10.15v62.14A10.18,10.18,0,0,0,61.64,446h40.55a151.45,151.45,0,0,0,13.92,33.58L87.43,508.23a10.18,10.18,0,0,0,0,14.36l43.94,43.94a10.18,10.18,0,0,0,14.36,0l28.68-28.69A151.57,151.57,0,0,0,208,551.76v40.55a10.19,10.19,0,0,0,10.16,10.16h62.14a10.19,10.19,0,0,0,10.15-10.16V551.76Zm-41.22-67.49a79.52,79.52,0,1,1,79.52-79.52A79.53,79.53,0,0,1,249.21,484.27Z" fill="#f18a00" fill-rule="evenodd"/><path d="M290.43,551.76A152,152,0,0,0,324,537.85l28.68,28.68a10.18,10.18,0,0,0,14.36,0L411,522.58a10.17,10.17,0,0,0,0-14.35L382.3,479.54A151.65,151.65,0,0,0,396.22,446h40.55a10.18,10.18,0,0,0,10.15-10.15V373.68a10.19,10.19,0,0,0-10.15-10.16H396.22A151.57,151.57,0,0,0,382.3,330L411,301.27a10.18,10.18,0,0,0,0-14.36L367,243a10.18,10.18,0,0,0-14.36,0L324,271.66a151.57,151.57,0,0,0-33.57-13.92V217.18A10.18,10.18,0,0,0,280.28,207H218.13A10.18,10.18,0,0,0,208,217.18v40.56a151.62,151.62,0,0,0-33.57,13.91L145.73,243a10.18,10.18,0,0,0-14.36,0L87.43,286.91a10.18,10.18,0,0,0,0,14.36L116.11,330a152,152,0,0,0-13.93,33.58H61.64a10.18,10.18,0,0,0-10.15,10.15v62.14A10.18,10.18,0,0,0,61.64,446h40.55a151.45,151.45,0,0,0,13.92,33.58L87.43,508.23a10.18,10.18,0,0,0,0,14.36l43.94,43.94a10.18,10.18,0,0,0,14.36,0l28.68-28.69A151.57,151.57,0,0,0,208,551.76v40.55a10.19,10.19,0,0,0,10.16,10.16h62.14a10.19,10.19,0,0,0,10.15-10.16V551.76Zm-41.22-67.49a79.52,79.52,0,1,1,79.52-79.52A79.53,79.53,0,0,1,249.21,484.27Z" fill="url(#b)" fill-rule="evenodd"/><path d="M249.21,495.44a90.7,90.7,0,1,0-64.13-26.56,90.4,90.4,0,0,0,64.13,26.56Zm67.88-22.81a96,96,0,1,1,28.12-67.88A95.66,95.66,0,0,1,317.09,472.63Z" fill="url(#a)" fill-rule="evenodd"/><path d="M249.21,541.9a137.15,137.15,0,1,0-97-40.17,136.72,136.72,0,0,0,97,40.17Zm100.73-36.41a142.46,142.46,0,1,1,41.73-100.74A142,142,0,0,1,349.94,505.49Z" fill="url(#i)" fill-rule="evenodd"/><path d="M1317.23,220.88a97.35,97.35,0,0,0,21.51-8.91l18.38,18.37a6.52,6.52,0,0,0,9.2,0l28.15-28.15a6.51,6.51,0,0,0,0-9.2l-18.37-18.38A97.35,97.35,0,0,0,1385,153.1h26a6.52,6.52,0,0,0,6.5-6.51V106.78a6.52,6.52,0,0,0-6.5-6.51h-26a97.35,97.35,0,0,0-8.91-21.51l18.37-18.38a6.51,6.51,0,0,0,0-9.2L1366.32,23a6.52,6.52,0,0,0-9.2,0l-18.38,18.38a97.38,97.38,0,0,0-21.51-8.92v-26a6.53,6.53,0,0,0-6.5-6.51h-39.82a6.53,6.53,0,0,0-6.51,6.51v26a96.9,96.9,0,0,0-21.51,8.92L1224.51,23a6.52,6.52,0,0,0-9.2,0l-28.15,28.15a6.52,6.52,0,0,0,0,9.2l18.38,18.38a96.9,96.9,0,0,0-8.92,21.51h-26a6.53,6.53,0,0,0-6.51,6.51v39.81a6.53,6.53,0,0,0,6.51,6.51h26a96.9,96.9,0,0,0,8.92,21.51L1187.16,193a6.52,6.52,0,0,0,0,9.2l28.16,28.15a6.51,6.51,0,0,0,9.19,0L1242.9,212a96.63,96.63,0,0,0,21.5,8.92v26a6.53,6.53,0,0,0,6.51,6.5h39.82a6.52,6.52,0,0,0,6.5-6.5v-26Zm-26.41-43.24a51,51,0,1,1,51-50.95A51,51,0,0,1,1290.82,177.64Z" fill="#f18a00" fill-rule="evenodd"/><path d="M1317.23,220.88a97.35,97.35,0,0,0,21.51-8.91l18.38,18.37a6.52,6.52,0,0,0,9.2,0l28.15-28.15a6.51,6.51,0,0,0,0-9.2l-18.37-18.38A97.35,97.35,0,0,0,1385,153.1h26a6.52,6.52,0,0,0,6.5-6.51V106.78a6.52,6.52,0,0,0-6.5-6.51h-26a97.35,97.35,0,0,0-8.91-21.51l18.37-18.38a6.51,6.51,0,0,0,0-9.2L1366.32,23a6.52,6.52,0,0,0-9.2,0l-18.38,18.38a97.38,97.38,0,0,0-21.51-8.92v-26a6.53,6.53,0,0,0-6.5-6.51h-39.82a6.53,6.53,0,0,0-6.51,6.51v26a96.9,96.9,0,0,0-21.51,8.92L1224.51,23a6.52,6.52,0,0,0-9.2,0l-28.15,28.15a6.52,6.52,0,0,0,0,9.2l18.38,18.38a96.9,96.9,0,0,0-8.92,21.51h-26a6.53,6.53,0,0,0-6.51,6.51v39.81a6.53,6.53,0,0,0,6.51,6.51h26a96.9,96.9,0,0,0,8.92,21.51L1187.16,193a6.52,6.52,0,0,0,0,9.2l28.16,28.15a6.51,6.51,0,0,0,9.19,0L1242.9,212a96.63,96.63,0,0,0,21.5,8.92v26a6.53,6.53,0,0,0,6.51,6.5h39.82a6.52,6.52,0,0,0,6.5-6.5v-26Zm-26.41-43.24a51,51,0,1,1,51-50.95A51,51,0,0,1,1290.82,177.64Z" fill="url(#j)" fill-rule="evenodd"/><path d="M1290.82,184.79a58.09,58.09,0,1,0-41.09-17,58,58,0,0,0,41.09,17Zm43.49-14.61a61.5,61.5,0,1,1,18-43.49A61.32,61.32,0,0,1,1334.31,170.18Z" fill="url(#k)" fill-rule="evenodd"/><path d="M1290.82,214.56a87.88,87.88,0,1,0-62.14-25.74,87.6,87.6,0,0,0,62.14,25.74Zm64.54-23.33a91.27,91.27,0,1,1,26.74-64.54A91,91,0,0,1,1355.36,191.23Z" fill="url(#l)" fill-rule="evenodd"/><path d="M327.51,865.51H46.59V738.68L327.51,404.75h134.4V745.87h69.67V865.51H461.91V969.25H327.51Zm0-119.64V571.2L179.07,745.87Z" fill="url(#c)"/><path d="M1361.85,865.51H1080.93V738.68l280.92-333.93h134.4V745.87h69.67V865.51h-69.67V969.25h-134.4Zm0-119.64V571.2L1213.41,745.87Z" fill="url(#m)"/><path d="M858.19,985.46c0,3.13-1.73,3.92-5.17,3.92s-12.9.78-14.63,0-6-3.32-6-1.57c0,2.35-3.44,2.35-5.16,1.57s-1.72-13.31-1.72-13.31h12.9s4.31.79,5.17,3.92S858.19,982.34,858.19,985.46Z" fill="url(#d)"/><path d="M950.23,985.46c0,3.13-1.72,3.92-5.16,3.92s-12.91.78-14.63,0-6-3.32-6-1.57c0,2.35-3.45,2.35-5.17,1.57s-1.72-13.31-1.72-13.31h12.91s4.3.79,5.16,3.92S950.23,982.34,950.23,985.46Z" fill="url(#n)"/><path d="M923.13,747s-15.1,36.74-28,65.8c-4.82,10.82-9.34,20.55-12.68,27-12.31,23.57-43.23,122.3-44,136.31H825.51c-1-43.05,30.24-153.22,30.24-153.22-7.18-27.16,6-75.84,6-75.84Z" fill="url(#e)"/><path d="M932.62,842.33c-.52,73.79-2.18,133.74-2.18,133.74h-12.9S904.47,905.43,906,844.89c0,0-7.31-18.14-10.88-32.08,12.95-29.06,28-65.8,28-65.8S933.12,768.52,932.62,842.33Z" fill="url(#o)"/><path d="M934.09,568.1c-.38.51-6.85,4.54-5.83,7.48h-9a13,13,0,0,1-1.86-4.15c-.52-2.24.31-4.29,0-6.22s1-3.72,1.86-1.92a15.24,15.24,0,0,1,1.53,4.16c.19,1.16,2,.78,2.76-1.09s4.8-5.31,8.51-3.81A3.76,3.76,0,0,1,934.09,568.1Z" fill="url(#f)"/><path d="M789.13,615.3,782.21,622s-1.26-1.76-6.53-3.2-5-1.23-7.82-6.61,4.9-9.69,6.92-8.24,4.14,5.05,5.86,5.63,3.66-1.25,2.89-3-1.35-5.49,0-4.82,3.07,4.42,4.41,5.49S789.13,615.3,789.13,615.3Z" fill="url(#p)"/><path d="M869.09,713.23c-44.39-1.71-24.23-36.51-24.23-36.51,2.11.89,4.28,1.84,6.49,2.89C862.8,685.06,868.63,700,869.09,713.23Z" fill="url(#g)"/><path d="M893.19,645.79c-1.33.6-3.55.67-5.77,1l-1.26.13-.71.06-.73.07c-3.69.25-6.79.26-6.79.26v.05h0c-3.28-4.74-3.3-6.77-3.09-7.5a2.82,2.82,0,0,0,1.81-2c2.74-11.66-7.44-21.68-7.44-21.68s-5.54-.63-7.69,1-2.87,2.76-3.28,10.26,8.92,8.81,6.36,10.34-6.66-5.85-9.13-3.7-1.13,5.84,3,7.6a5,5,0,0,0,6.26-1.34,25.25,25.25,0,0,1,6,12.58,5.16,5.16,0,0,1,.08.66,18.4,18.4,0,0,1,.1,2.36c-.23,8.91-6,8.24-8,6.71,0,0-7.76-6.79-15-10.12a24.86,24.86,0,0,0-3.09-1.18c-.78-.26-1.55-.49-2.3-.68-8.19-11.22,4.32-20.06,4.32-20.06-7.53-6.16-3.54-21.8,6.28-26.27s16.69,1.61,16.69,1.61c14.5,3.77,12.22,25.46,12.22,25.46S891.92,636.26,893.19,645.79Z" fill="url(#q)"/><path d="M928.26,628.12c-2.3,4.35-19.73,32.28-18.19,36.89s14.75,8.48,5.76,29.47c-7.59,17.7,9.36,32.54,7.3,52.53H861.74a166.45,166.45,0,0,0,6.57-23.58,41.89,41.89,0,0,0,.78-10.2c-.46-13.23-6.29-28.17-17.74-33.62-2.21-1.05-4.38-2-6.49-2.89-11.78-5-22.22-8.52-34.59-20.67C795.67,641.69,782.21,622,782.21,622l6.92-6.66s24.09,22.55,35.61,28.44S840,650.15,840,650.15a21.43,21.43,0,0,1,2.38.49c.75.19,1.52.42,2.3.68,1,.35,2.06.75,3.09,1.18,7.25,3.33,15,10.12,15,10.12,2,1.53,7.8,2.2,8-6.71a18.4,18.4,0,0,0-.1-2.36c7-.06,7.23-5.66,7.24-6.23v-.05s3.1,0,6.79-.26l.73-.07.71-.06,1.26-.13a28,28,0,0,0,7.57-1.57,4.08,4.08,0,0,0,1.24-.79c2.69-2.83,17.17-26.94,17.94-32.24s5.13-36.57,5.13-36.57h9S930.57,623.76,928.26,628.12Z" fill="url(#r)"/><path d="M877.93,647.32c0,.57-.25,6.17-7.24,6.23a5.16,5.16,0,0,0-.08-.66,25.25,25.25,0,0,0-6-12.58c1.1.3,6.47-.1,9.42-.33a4.19,4.19,0,0,0,.72-.16c-.21.73-.19,2.76,3.09,7.5Z" fill="url(#s)"/><path d="M876.6,637.81a2.82,2.82,0,0,1-1.81,2,4.19,4.19,0,0,1-.72.16c-3,.23-8.32.63-9.42.33a5,5,0,0,1-6.26,1.34c-4.1-1.76-5.43-5.43-3-7.6s6.56,5.23,9.13,3.7-6.76-2.86-6.36-10.34,1.13-8.63,3.28-10.26,7.69-1,7.69-1S879.34,626.15,876.6,637.81Z" fill="url(#t)"/><path d="M563.83,347.72q-15.95-157.46,34.36-226.1t166.34-80.4q55.74-5.65,92.92,4.47t62,29.87q24.84,19.74,40.29,42.73t26.65,54.57a531.46,531.46,0,0,1,28.49,127.25q15.24,150.3-28.56,225.13T818.24,612.67q-69.69,7.07-114.88-10.81t-77-58q-23.05-28.49-39.53-80.28T563.83,347.72ZM716,332.67q10.69,105.48,33.25,142.19t58,33.14q23.36-2.37,38.83-20.49t20-54.35Q870.59,396.93,863,322q-11.15-110-33.62-146T769.6,143.83q-38.05,3.85-51.09,44.18T716,332.67Z" fill="url(#u)"/><path d="M221.08,982.65s14.06-39.07,54.69-23.45c0,0,7.87-61.69,63.26-69.85s79,44.85,79,44.85,15.63-20.31,40.63-12.5,24.81,25.49,24.81,25.49,11.31-15.56,38.37-7.79,22.77,29.18,22.77,29.18,56.26-18.75,68.76,14.07Z" fill="url(#h)"/><path d="M490,1005.78s8.87-24.64,34.5-14.78c0,0-5.92-73.91,43.36-76.87s46.32,61.1,46.32,61.1,9.85-12.81,25.62-7.88S653.59,992,653.59,992s18.41-21.66,35.48-16.76S694,996.91,694,996.91s35.48-11.82,43.37,8.87Z" fill="url(#v)"/><path d="M1029.33,1001s8.44-23.44,32.81-14.06c0,0-5.63-70.3,41.23-73.11s44.05,58.11,44.05,58.11,9.38-12.18,24.37-7.5,13.12,23.43,13.12,23.43,17.52-20.59,33.74-15.93,4.69,20.62,4.69,20.62,33.74-11.25,41.24,8.44Z" fill="url(#w)"/></g></svg>